<?xml version="1.0" encoding="UTF-8" standalone="no"?>
<!-- Created with Inkscape (http://www.inkscape.org/) -->

<svg
   xmlns:dc="http://purl.org/dc/elements/1.1/"
   xmlns:cc="http://creativecommons.org/ns#"
   xmlns:rdf="http://www.w3.org/1999/02/22-rdf-syntax-ns#"
   xmlns:svg="http://www.w3.org/2000/svg"
   xmlns="http://www.w3.org/2000/svg"
   xmlns:sodipodi="http://sodipodi.sourceforge.net/DTD/sodipodi-0.dtd"
   xmlns:inkscape="http://www.inkscape.org/namespaces/inkscape"
   version="1.1"
   width="411.065"
   height="159.64"
   viewBox="-17.587 158.499 411.065 159.63999"
   id="Ebene_1"
   xml:space="preserve"
   inkscape:version="0.48.1 "
   sodipodi:docname="ZZ1.svg"><sodipodi:namedview
   pagecolor="#ffffff"
   bordercolor="#666666"
   borderopacity="1"
   objecttolerance="10"
   gridtolerance="10"
   guidetolerance="10"
   inkscape:pageopacity="0"
   inkscape:pageshadow="2"
   inkscape:window-width="1280"
   inkscape:window-height="1004"
   id="namedview114"
   showgrid="false"
   fit-margin-top="0"
   fit-margin-left="0"
   fit-margin-right="0"
   fit-margin-bottom="0"
   inkscape:zoom="1.4635171"
   inkscape:cx="301.13879"
   inkscape:cy="-39.586603"
   inkscape:window-x="-8"
   inkscape:window-y="-8"
   inkscape:window-maximized="1"
   inkscape:current-layer="Ebene_1" /><metadata
   id="metadata225"><rdf:RDF><cc:Work
       rdf:about=""><dc:format>image/svg+xml</dc:format><dc:type
         rdf:resource="http://purl.org/dc/dcmitype/StillImage" /><dc:title /></cc:Work></rdf:RDF></metadata><defs
   id="defs223" />
<g
   id="g3"
   transform="translate(-36.851,-34.725003)">
	<path
   d="m 23.619,307.426 h 2.305 c 2.128,0 2.778,0.138 3.724,0.896 0.917,0.749 1.478,2.099 1.478,3.605 0,3.064 -1.734,4.434 -5.547,4.434 -0.404,0 -1.054,0 -1.96,-0.02 v -8.915 z m 0,-9.842 c 1.074,0 1.419,-0.039 1.862,-0.039 2.512,0 3.192,0.177 3.99,0.975 0.689,0.709 1.035,1.655 1.035,2.916 0,1.409 -0.483,2.512 -1.379,3.133 -0.896,0.63 -1.478,0.758 -3.379,0.758 h -0.611 c -0.345,-0.03 -0.867,-0.03 -1.517,-0.03 v -7.713 z m -2.512,20.848 c 1.862,0.039 3.104,0.039 3.724,0.039 2.985,0 4.157,-0.168 5.566,-0.789 0.65,-0.324 1.32,-0.838 1.891,-1.518 0.966,-1.133 1.438,-2.512 1.438,-4.127 0,-3.093 -1.546,-5.162 -4.295,-5.822 1.754,-0.65 2.65,-1.399 3.241,-2.857 0.266,-0.65 0.404,-1.438 0.404,-2.188 0,-2.039 -0.828,-3.724 -2.227,-4.679 -1.242,-0.867 -2.354,-1.035 -6.088,-1.035 -0.719,0 -1.714,0 -3.655,0.03 v 22.946"
   id="path5"
   style="fill:#2f63b7"
   inkscape:connector-curvature="0" />
	<path
   d="m 43.165,298.008 c 0.276,1.507 0.384,1.911 0.769,3.428 l 1.98,7.537 h -5.507 l 2.029,-7.537 c 0.385,-1.398 0.483,-1.891 0.729,-3.428 z m -7.674,20.424 h 2.414 l 2,-7.459 h 6.561 l 1.96,7.459 h 2.611 l -6.433,-22.945 h -2.68 l -6.433,22.945"
   id="path7"
   style="fill:#2f63b7"
   inkscape:connector-curvature="0" />
	<path
   d="m 54.101,318.432 h 2.088 v -15.418 c 0,-0.365 -0.02,-0.995 -0.02,-1.882 -0.04,-0.591 -0.04,-1.448 -0.079,-2.611 l 0.66,1.921 0.789,2.128 6.325,15.862 h 3.064 v -22.945 h -2.099 v 15.309 c 0,1.133 0.03,2.1 0.128,4.533 -0.65,-1.883 -0.916,-2.572 -1.438,-3.883 l -6.354,-15.959 h -3.064 v 22.945"
   id="path9"
   style="fill:#2f63b7"
   inkscape:connector-curvature="0" />
	<path
   d="m 85.518,312.588 -2.443,-0.412 c -0.621,3.014 -2.03,4.512 -4.295,4.512 -3.202,0 -5.064,-3.625 -5.064,-9.704 0,-6.138 1.862,-9.734 5.064,-9.734 2.227,0 3.605,1.409 4.295,4.404 l 2.374,-0.384 c -0.374,-1.783 -0.65,-2.473 -1.34,-3.438 -1.281,-1.823 -3.103,-2.758 -5.369,-2.758 -4.817,0 -7.635,4.374 -7.635,11.911 0,7.497 2.818,11.87 7.635,11.87 2.305,0 4.227,-1.004 5.369,-2.758 0.69,-1.066 0.926,-1.695 1.409,-3.509"
   id="path11"
   style="fill:#2f63b7"
   inkscape:connector-curvature="0" />
	<path
   d="m 95.291,298.008 c 0.275,1.507 0.374,1.911 0.758,3.428 l 1.99,7.537 h -5.507 l 2.04,-7.537 c 0.374,-1.398 0.473,-1.891 0.719,-3.428 z m -7.675,20.424 h 2.404 l 2,-7.459 h 6.561 l 1.971,7.459 h 2.61 l -6.423,-22.945 h -2.69 l -6.433,22.945"
   id="path13"
   style="fill:#2f63b7"
   inkscape:connector-curvature="0" />
	<path
   d="m 111.596,318.432 h 2.108 v -15.418 c 0,-0.365 -0.04,-0.995 -0.04,-1.882 -0.039,-0.591 -0.039,-1.448 -0.069,-2.611 l 0.66,1.921 0.788,2.128 6.325,15.862 h 3.064 v -22.945 h -2.108 v 15.309 c 0,1.133 0.039,2.1 0.147,4.533 -0.65,-1.883 -0.936,-2.572 -1.458,-3.883 l -6.345,-15.959 h -3.073 v 22.945"
   id="path15"
   style="fill:#2f63b7"
   inkscape:connector-curvature="0" />
	<path
   d="m 135.171,298.008 c 0.286,1.507 0.384,1.911 0.758,3.428 l 2,7.537 h -5.507 l 2.03,-7.537 c 0.384,-1.398 0.482,-1.891 0.719,-3.428 z m -7.665,20.424 h 2.404 l 2,-7.459 h 6.571 l 1.96,7.459 h 2.611 l -6.433,-22.945 h -2.68 l -6.433,22.945"
   id="path17"
   style="fill:#2f63b7"
   inkscape:connector-curvature="0" />
	<path
   d="m 144.599,318.432 h 12.207 v -2.168 h -4.699 l -3.074,0.078 -1.646,0.02 c 0.749,-1.172 1.035,-1.645 1.586,-2.777 l 7.832,-16.344 v -1.753 h -11.792 v 2.167 h 4.443 l 2.917,-0.069 1.685,-0.039 c -0.266,0.423 -0.473,0.689 -0.591,0.896 -0.099,0.217 -0.364,0.758 -0.828,1.655 l -8.039,16.649 v 1.685"
   id="path19"
   style="fill:#2f63b7"
   inkscape:connector-curvature="0" />
	<path
   d="m 160.441,318.432 h 2.571 v -22.945 h -2.571 v 22.945 z"
   id="path21"
   style="fill:#2f63b7"
   inkscape:connector-curvature="0" />
	<path
   d="m 179.454,295.486 v 16.176 c 0,3.469 -1.379,5.084 -4.374,5.084 -2.876,0 -4.157,-1.557 -4.157,-5.084 v -16.176 h -2.522 v 15.586 c 0,2.994 0.423,4.609 1.497,5.852 1.054,1.24 2.917,1.951 5.005,1.951 3.31,0 5.744,-1.537 6.473,-4.148 0.266,-0.975 0.414,-2.107 0.414,-3.518 v -15.723 h -2.336"
   id="path23"
   style="fill:#2f63b7"
   inkscape:connector-curvature="0" />
	<path
   d="m 187.346,318.432 h 2.108 v -15.418 c 0,-0.365 -0.04,-0.995 -0.04,-1.882 -0.04,-0.591 -0.04,-1.448 -0.059,-2.611 l 0.65,1.921 0.789,2.128 6.315,15.862 h 3.074 v -22.945 h -2.099 v 15.309 c 0,1.133 0.03,2.1 0.138,4.533 -0.66,-1.883 -0.936,-2.572 -1.458,-3.883 l -6.354,-15.959 h -3.064 v 22.945"
   id="path25"
   style="fill:#2f63b7"
   inkscape:connector-curvature="0" />
	<path
   d="m 210.931,298.008 c 0.266,1.507 0.385,1.911 0.749,3.428 l 2,7.537 h -5.508 l 2.03,-7.537 c 0.384,-1.398 0.483,-1.891 0.729,-3.428 z m -7.674,20.424 h 2.404 l 1.99,-7.459 h 6.581 l 1.95,7.459 h 2.62 l -6.433,-22.945 h -2.689 l -6.423,22.945"
   id="path27"
   style="fill:#2f63b7"
   inkscape:connector-curvature="0" />
	<path
   d="m 221.866,318.432 h 9.664 v -2.168 h -7.152 v -20.777 h -2.512 v 22.945"
   id="path29"
   style="fill:#2f63b7"
   inkscape:connector-curvature="0" />
	<path
   d="m 240.615,298.008 c 0.275,1.507 0.374,1.911 0.759,3.428 l 1.989,7.537 h -5.507 l 2.039,-7.537 c 0.385,-1.398 0.483,-1.891 0.72,-3.428 z m -7.666,20.424 h 2.404 l 2,-7.459 h 6.57 l 1.951,7.459 h 2.61 l -6.423,-22.945 h -2.689 l -6.423,22.945"
   id="path31"
   style="fill:#2f63b7"
   inkscape:connector-curvature="0" />
	<path
   d="m 269.164,301.299 c -0.275,-1.547 -0.443,-2.197 -0.788,-2.956 -0.335,-0.759 -0.827,-1.409 -1.398,-1.931 -1.074,-0.926 -2.385,-1.34 -4.138,-1.34 -3.921,0 -6.364,2.374 -6.364,6.157 0,1.418 0.384,2.689 1.143,3.685 0.798,1.034 1.438,1.478 3.576,2.453 2.443,1.094 3.497,1.744 4.364,2.572 0.689,0.648 1.055,1.684 1.055,2.777 0,2.375 -1.705,4.068 -4.148,4.068 -1.763,0 -3.201,-0.965 -3.743,-2.482 -0.286,-0.65 -0.354,-0.994 -0.513,-2.168 l -2.305,0.316 c 0.473,4.434 2.512,6.463 6.364,6.463 4.147,0 6.975,-2.611 6.975,-6.424 0,-2 -0.867,-3.901 -2.266,-4.956 -0.848,-0.591 -2.65,-1.586 -4.168,-2.207 -2.403,-1.035 -2.994,-1.478 -3.438,-2.68 -0.207,-0.522 -0.315,-1.074 -0.315,-1.655 0,-2.335 1.448,-3.793 3.685,-3.793 1.685,0 2.985,0.808 3.576,2.207 0.236,0.591 0.335,0.965 0.562,2.207 l 2.284,-0.313"
   id="path33"
   style="fill:#2f63b7"
   inkscape:connector-curvature="0" />
	<path
   d="m 285.736,295.486 h -2.503 l -3.921,15.625 c -0.384,1.586 -0.552,2.373 -0.896,4.404 h -0.068 c -0.207,-0.977 -0.335,-1.646 -0.434,-2.139 -0.286,-1.408 -0.493,-2.266 -0.562,-2.621 l -3.715,-15.27 h -2.709 l 6.01,22.945 h 2.68 l 6.118,-22.944"
   id="path35"
   style="fill:#2f63b7"
   inkscape:connector-curvature="0" />
	<path
   d="m 288.582,318.432 h 2.571 v -22.945 h -2.571 v 22.945 z"
   id="path37"
   style="fill:#2f63b7"
   inkscape:connector-curvature="0" />
	<path
   d="m 294.7,318.432 h 12.206 v -2.168 h -4.699 l -3.073,0.078 -1.646,0.02 c 0.759,-1.172 1.034,-1.645 1.586,-2.777 l 7.832,-16.344 v -1.753 h -11.782 v 2.167 h 4.434 l 2.916,-0.069 1.685,-0.039 c -0.276,0.423 -0.474,0.689 -0.592,0.896 -0.099,0.217 -0.374,0.758 -0.817,1.655 l -8.049,16.649 v 1.685"
   id="path39"
   style="fill:#2f63b7"
   inkscape:connector-curvature="0" />
	<path
   d="m 313.153,297.584 c 1.133,-0.059 1.646,-0.099 2.227,-0.099 2.374,0 3.34,0.237 4.108,0.995 0.749,0.719 1.094,1.714 1.094,3.054 0,1.931 -0.759,3.172 -2.246,3.665 -0.848,0.266 -1.438,0.335 -3.281,0.335 h -1.901 v -7.95 z m 4.699,9.842 c 3.438,-0.482 5.34,-2.581 5.34,-5.95 0,-2.128 -0.906,-4.059 -2.306,-4.985 -1.271,-0.828 -2.61,-1.113 -5.565,-1.113 -0.65,0 -1.971,0.04 -4.68,0.108 v 22.945 h 2.512 v -10.759 h 2.128 l 5.812,10.759 h 2.857 l -5.123,-9.458 c -0.453,-0.817 -0.512,-0.935 -0.975,-1.547"
   id="path41"
   style="fill:#2f63b7"
   inkscape:connector-curvature="0" />
	<path
   d="m 333.064,298.008 c 0.285,1.507 0.384,1.911 0.748,3.428 l 2.01,7.537 h -5.497 l 2.01,-7.537 c 0.383,-1.398 0.491,-1.891 0.729,-3.428 z m -7.665,20.424 h 2.403 l 2,-7.459 h 6.562 l 1.961,7.459 h 2.62 l -6.424,-22.945 h -2.699 l -6.423,22.945"
   id="path43"
   style="fill:#2f63b7"
   inkscape:connector-curvature="0" />
	<path
   d="m 23.619,273.487 h 2.305 c 2.128,0 2.778,0.128 3.724,0.887 0.917,0.749 1.478,2.088 1.478,3.616 0,3.054 -1.734,4.433 -5.547,4.433 -0.404,0 -1.054,0 -1.96,-0.04 v -8.896 z m 0,-9.841 c 1.074,0 1.419,-0.04 1.862,-0.04 2.512,0 3.192,0.177 3.99,0.965 0.689,0.709 1.035,1.646 1.035,2.917 0,1.418 -0.483,2.512 -1.379,3.133 -0.896,0.621 -1.478,0.758 -3.379,0.758 h -0.611 c -0.345,-0.04 -0.867,-0.04 -1.517,-0.04 v -7.693 z m -2.512,20.836 c 1.862,0.039 3.104,0.039 3.724,0.039 2.985,0 4.157,-0.177 5.566,-0.788 0.65,-0.305 1.32,-0.827 1.891,-1.517 0.966,-1.143 1.438,-2.512 1.438,-4.128 0,-3.103 -1.546,-5.162 -4.295,-5.812 1.754,-0.66 2.65,-1.418 3.241,-2.857 0.266,-0.65 0.404,-1.448 0.404,-2.207 0,-2.029 -0.828,-3.714 -2.227,-4.669 -1.242,-0.867 -2.354,-1.044 -6.088,-1.044 -0.719,0 -1.714,0 -3.655,0.04 v 22.943"
   id="path45"
   style="fill:#2f63b7"
   inkscape:connector-curvature="0" />
	<path
   d="m 43.165,264.049 c 0.276,1.517 0.384,1.921 0.769,3.438 l 1.98,7.536 h -5.507 l 2.029,-7.536 c 0.385,-1.399 0.483,-1.881 0.729,-3.438 z m -7.674,20.433 h 2.414 l 2,-7.458 h 6.561 l 1.96,7.458 h 2.611 l -6.433,-22.945 h -2.68 l -6.433,22.945"
   id="path47"
   style="fill:#2f63b7"
   inkscape:connector-curvature="0" />
	<path
   d="m 54.101,284.492 h 2.088 v -15.418 c 0,-0.384 -0.02,-0.995 -0.02,-1.882 -0.04,-0.591 -0.04,-1.458 -0.079,-2.621 l 0.66,1.921 0.789,2.138 6.325,15.861 h 3.064 v -22.955 h -2.099 v 15.31 c 0,1.143 0.03,2.108 0.128,4.542 -0.65,-1.892 -0.916,-2.581 -1.438,-3.891 l -6.354,-15.96 h -3.064 v 22.955"
   id="path49"
   style="fill:#2f63b7"
   inkscape:connector-curvature="0" />
	<path
   d="m 85.518,278.64 -2.443,-0.414 c -0.621,3.034 -2.03,4.512 -4.295,4.512 -3.202,0 -5.064,-3.615 -5.064,-9.714 0,-6.118 1.862,-9.724 5.064,-9.724 2.227,0 3.605,1.409 4.295,4.394 l 2.374,-0.364 c -0.374,-1.803 -0.65,-2.493 -1.34,-3.448 -1.281,-1.823 -3.103,-2.749 -5.369,-2.749 -4.817,0 -7.635,4.364 -7.635,11.891 0,7.507 2.818,11.881 7.635,11.881 2.305,0 4.227,-1.005 5.369,-2.749 0.69,-1.083 0.926,-1.684 1.409,-3.516"
   id="path51"
   style="fill:#2f63b7"
   inkscape:connector-curvature="0" />
	<path
   d="m 95.291,264.049 c 0.275,1.517 0.374,1.921 0.758,3.438 l 1.99,7.536 h -5.507 l 2.04,-7.536 c 0.374,-1.399 0.473,-1.881 0.719,-3.438 z m -7.675,20.433 h 2.404 l 2,-7.458 h 6.561 l 1.971,7.458 h 2.61 l -6.423,-22.945 h -2.69 l -6.433,22.945"
   id="path53"
   style="fill:#2f63b7"
   inkscape:connector-curvature="0" />
	<path
   d="m 111.596,284.492 h 2.108 v -15.418 c 0,-0.384 -0.04,-0.995 -0.04,-1.882 -0.039,-0.591 -0.039,-1.458 -0.069,-2.621 l 0.66,1.921 0.788,2.138 6.325,15.861 h 3.064 v -22.955 h -2.108 v 15.31 c 0,1.143 0.039,2.108 0.147,4.542 -0.65,-1.892 -0.936,-2.581 -1.458,-3.891 l -6.345,-15.96 h -3.073 v 22.955"
   id="path55"
   style="fill:#2f63b7"
   inkscape:connector-curvature="0" />
	<path
   d="m 135.171,264.049 c 0.286,1.517 0.384,1.921 0.758,3.438 l 2,7.536 h -5.507 l 2.03,-7.536 c 0.384,-1.399 0.482,-1.881 0.719,-3.438 z m -7.665,20.433 h 2.404 l 2,-7.458 h 6.571 l 1.96,7.458 h 2.611 l -6.433,-22.945 h -2.68 l -6.433,22.945"
   id="path57"
   style="fill:#2f63b7"
   inkscape:connector-curvature="0" />
	<path
   d="m 144.599,284.492 h 12.207 v -2.167 h -4.699 l -3.074,0.059 -1.646,0.04 c 0.749,-1.163 1.035,-1.645 1.586,-2.778 l 7.832,-16.344 v -1.763 h -11.792 v 2.167 h 4.443 l 2.917,-0.059 1.685,-0.04 c -0.266,0.414 -0.473,0.689 -0.591,0.887 -0.099,0.217 -0.364,0.769 -0.828,1.665 l -8.039,16.649 v 1.684"
   id="path59"
   style="fill:#2f63b7"
   inkscape:connector-curvature="0" />
	<path
   d="m 160.441,284.492 h 2.571 v -22.955 h -2.571 v 22.955 z"
   id="path61"
   style="fill:#2f63b7"
   inkscape:connector-curvature="0" />
	<path
   d="m 174.677,263.3 c 3.123,0 5.015,3.646 5.015,9.724 0,6.099 -1.892,9.714 -5.015,9.714 -3.133,0 -5.024,-3.615 -5.024,-9.714 -0.001,-6.078 1.891,-9.724 5.024,-9.724 z m 0,21.605 c 4.817,0 7.635,-4.374 7.635,-11.881 0,-7.526 -2.818,-11.891 -7.635,-11.891 -4.817,0 -7.635,4.364 -7.635,11.891 -0.001,7.507 2.817,11.881 7.635,11.881"
   id="path63"
   style="fill:#2f63b7"
   inkscape:connector-curvature="0" />
	<path
   d="m 186.489,284.492 h 2.099 v -15.418 c 0,-0.384 -0.029,-0.995 -0.029,-1.882 -0.04,-0.591 -0.04,-1.458 -0.079,-2.621 l 0.65,1.921 0.808,2.138 6.315,15.861 h 3.064 v -22.955 h -2.088 v 15.31 c 0,1.143 0.02,2.108 0.128,4.542 -0.65,-1.892 -0.936,-2.581 -1.448,-3.891 l -6.354,-15.96 h -3.064 v 22.955"
   id="path65"
   style="fill:#2f63b7"
   inkscape:connector-curvature="0" />
	<path
   d="m 210.064,264.049 c 0.276,1.517 0.375,1.921 0.759,3.438 l 1.99,7.536 h -5.507 l 2.039,-7.536 c 0.374,-1.399 0.473,-1.881 0.719,-3.438 z m -7.675,20.433 h 2.404 l 2,-7.458 h 6.571 l 1.96,7.458 h 2.611 l -6.424,-22.945 h -2.689 l -6.433,22.945"
   id="path67"
   style="fill:#2f63b7"
   inkscape:connector-curvature="0" />
	<path
   d="m 220.999,284.492 h 9.655 v -2.167 h -7.143 v -20.787 h -2.513 v 22.954"
   id="path69"
   style="fill:#2f63b7"
   inkscape:connector-curvature="0" />
	<path
   d="m 233.876,284.492 h 10.994 v -2.167 h -8.492 v -8.709 h 7.94 v -2.138 h -7.94 v -7.773 h 8.049 v -2.167 h -10.551 v 22.954"
   id="path71"
   style="fill:#2f63b7"
   inkscape:connector-curvature="0" />
	<path
   d="m 267.874,267.35 c -0.276,-1.547 -0.443,-2.207 -0.788,-2.956 -0.335,-0.749 -0.828,-1.399 -1.409,-1.921 -1.063,-0.936 -2.364,-1.34 -4.118,-1.34 -3.921,0 -6.364,2.364 -6.364,6.147 0,1.409 0.385,2.68 1.144,3.675 0.788,1.044 1.438,1.497 3.565,2.453 2.443,1.093 3.508,1.753 4.375,2.591 0.67,0.65 1.054,1.685 1.054,2.778 0,2.364 -1.724,4.059 -4.157,4.059 -1.754,0 -3.202,-0.965 -3.744,-2.482 -0.275,-0.65 -0.345,-0.995 -0.521,-2.167 l -2.306,0.315 c 0.482,4.443 2.522,6.472 6.374,6.472 4.157,0 6.965,-2.62 6.965,-6.443 0,-1.99 -0.856,-3.872 -2.266,-4.945 -0.827,-0.591 -2.64,-1.586 -4.157,-2.207 -2.404,-1.034 -2.995,-1.478 -3.438,-2.689 -0.207,-0.512 -0.306,-1.054 -0.306,-1.645 0,-2.335 1.438,-3.783 3.685,-3.783 1.675,0 2.976,0.788 3.566,2.207 0.247,0.582 0.345,0.956 0.552,2.197 l 2.294,-0.316"
   id="path73"
   style="fill:#2f63b7"
   inkscape:connector-curvature="0" />
	<path
   d="m 284.445,261.537 h -2.512 l -3.911,15.615 c -0.375,1.586 -0.562,2.375 -0.887,4.414 h -0.079 c -0.207,-0.966 -0.345,-1.655 -0.443,-2.138 -0.266,-1.409 -0.492,-2.276 -0.552,-2.601 l -3.724,-15.29 h -2.699 l 6.02,22.955 h 2.669 l 6.118,-22.955"
   id="path75"
   style="fill:#2f63b7"
   inkscape:connector-curvature="0" />
	<path
   d="m 287.292,284.492 h 2.571 v -22.955 h -2.571 v 22.955 z"
   id="path77"
   style="fill:#2f63b7"
   inkscape:connector-curvature="0" />
	<path
   d="m 293.409,284.492 h 12.207 v -2.167 h -4.709 l -3.064,0.059 -1.646,0.04 c 0.759,-1.163 1.035,-1.645 1.587,-2.778 l 7.832,-16.344 v -1.763 h -11.783 v 2.167 h 4.434 l 2.916,-0.059 1.685,-0.04 c -0.285,0.414 -0.482,0.689 -0.591,0.887 -0.099,0.217 -0.385,0.769 -0.818,1.665 l -8.049,16.649 v 1.684"
   id="path79"
   style="fill:#2f63b7"
   inkscape:connector-curvature="0" />
	<path
   d="m 307.468,284.492 h 12.197 v -2.167 h -4.71 l -3.054,0.059 -1.655,0.04 c 0.749,-1.163 1.034,-1.645 1.576,-2.778 l 7.843,-16.344 v -1.763 h -11.793 v 2.167 h 4.443 l 2.916,-0.059 1.694,-0.04 c -0.286,0.414 -0.482,0.689 -0.591,0.887 -0.099,0.217 -0.385,0.769 -0.828,1.665 l -8.039,16.649 v 1.684"
   id="path81"
   style="fill:#2f63b7"
   inkscape:connector-curvature="0" />
	<path
   d="m 323.36,284.492 h 11.004 v -2.167 h -8.492 v -8.709 h 7.94 v -2.138 h -7.94 v -7.773 h 8.039 v -2.167 H 323.36 v 22.954"
   id="path83"
   style="fill:#2f63b7"
   inkscape:connector-curvature="0" />
	<path
   d="m 341.487,263.646 c 1.133,-0.079 1.655,-0.108 2.236,-0.108 2.374,0 3.33,0.246 4.099,0.995 0.748,0.729 1.093,1.725 1.093,3.064 0,1.921 -0.758,3.162 -2.236,3.645 -0.856,0.276 -1.448,0.345 -3.31,0.345 h -1.882 v -7.941 z m 4.709,9.841 c 3.438,-0.493 5.33,-2.591 5.33,-5.96 0,-2.128 -0.896,-4.069 -2.306,-4.985 -1.261,-0.828 -2.61,-1.104 -5.566,-1.104 -0.66,0 -1.97,0.03 -4.68,0.099 v 22.945 h 2.513 v -10.768 h 2.138 l 5.812,10.768 h 2.837 l -5.122,-9.458 c -0.444,-0.827 -0.503,-0.926 -0.956,-1.537"
   id="path85"
   style="fill:#2f63b7"
   inkscape:connector-curvature="0" />
	<path
   d="m 361.397,264.049 c 0.286,1.517 0.374,1.921 0.759,3.438 l 1.99,7.536 h -5.508 l 2.04,-7.536 c 0.384,-1.399 0.492,-1.881 0.719,-3.438 z m -7.665,20.433 h 2.414 l 1.99,-7.458 h 6.571 l 1.95,7.458 h 2.611 l -6.424,-22.945 h -2.689 l -6.423,22.945"
   id="path87"
   style="fill:#2f63b7"
   inkscape:connector-curvature="0" />
	<path
   d="m 23.619,239.528 h 2.305 c 2.128,0 2.778,0.138 3.724,0.887 0.917,0.768 1.478,2.108 1.478,3.616 0,3.063 -1.734,4.443 -5.547,4.443 -0.404,0 -1.054,0 -1.96,-0.04 v -8.906 z m 0,-9.832 c 1.074,0 1.419,-0.04 1.862,-0.04 2.512,0 3.192,0.177 3.99,0.966 0.689,0.719 1.035,1.645 1.035,2.926 0,1.409 -0.483,2.502 -1.379,3.123 -0.896,0.621 -1.478,0.758 -3.379,0.758 h -0.611 c -0.345,-0.04 -0.867,-0.04 -1.517,-0.04 v -7.693 z m -2.512,20.846 c 1.862,0.02 3.104,0.02 3.724,0.02 2.985,0 4.157,-0.157 5.566,-0.788 0.65,-0.305 1.32,-0.817 1.891,-1.507 0.966,-1.133 1.438,-2.512 1.438,-4.127 0,-3.104 -1.546,-5.163 -4.295,-5.813 1.754,-0.65 2.65,-1.418 3.241,-2.857 0.266,-0.65 0.404,-1.438 0.404,-2.207 0,-2.03 -0.828,-3.714 -2.227,-4.68 -1.242,-0.857 -2.354,-1.035 -6.088,-1.035 -0.719,0 -1.714,0 -3.655,0.04 v 22.954"
   id="path89"
   style="fill:#2f63b7"
   inkscape:connector-curvature="0" />
	<path
   d="m 43.165,230.1 c 0.276,1.517 0.384,1.931 0.769,3.448 l 1.98,7.526 h -5.507 l 2.029,-7.526 c 0.385,-1.419 0.483,-1.901 0.729,-3.448 z m -7.674,20.442 h 2.414 l 2,-7.478 h 6.561 l 1.96,7.478 h 2.611 l -6.433,-22.955 h -2.68 l -6.433,22.955"
   id="path91"
   style="fill:#2f63b7"
   inkscape:connector-curvature="0" />
	<path
   d="m 54.101,250.542 h 2.088 v -15.418 c 0,-0.384 -0.02,-0.995 -0.02,-1.901 -0.04,-0.571 -0.04,-1.438 -0.079,-2.601 l 0.66,1.931 0.789,2.128 6.325,15.861 h 3.064 v -22.955 h -2.099 v 15.319 c 0,1.124 0.03,2.099 0.128,4.532 -0.65,-1.881 -0.916,-2.571 -1.438,-3.881 l -6.354,-15.97 h -3.064 v 22.955"
   id="path93"
   style="fill:#2f63b7"
   inkscape:connector-curvature="0" />
	<path
   d="m 83.577,238.977 c 0,6.364 -1.705,9.773 -4.946,9.773 -3.093,0 -5.015,-3.685 -5.015,-9.733 0,-6.059 1.921,-9.704 5.054,-9.704 3.233,-10e-4 4.907,3.339 4.907,9.664 z m -1.478,10.768 c 2.167,-1.685 2.837,-2.65 3.418,-5.015 0.443,-1.793 0.69,-3.724 0.69,-5.714 0,-7.537 -2.758,-11.872 -7.537,-11.872 -4.817,0 -7.566,4.335 -7.566,11.872 0,7.428 2.788,11.901 7.35,11.901 0.325,0 0.729,-0.03 1.281,-0.069 l 4.029,3.576 1.852,-1.655 -3.517,-3.024"
   id="path95"
   style="fill:#2f63b7"
   inkscape:connector-curvature="0" />
	<path
   d="m 101.409,227.588 v 16.167 c 0,3.478 -1.379,5.104 -4.354,5.104 -2.896,0 -4.157,-1.557 -4.157,-5.104 v -16.167 h -2.522 v 15.585 c 0,2.995 0.414,4.611 1.478,5.852 1.074,1.231 2.926,1.96 5.024,1.96 3.291,0 5.744,-1.547 6.473,-4.167 0.266,-0.966 0.404,-2.089 0.404,-3.508 v -15.723 h -2.346"
   id="path97"
   style="fill:#2f63b7"
   inkscape:connector-curvature="0" />
	<path
   d="m 109.31,250.542 h 11.005 v -2.167 h -8.492 v -8.709 h 7.95 v -2.128 h -7.95 v -7.783 h 8.049 v -2.167 H 109.31 v 22.954"
   id="path99"
   style="fill:#2f63b7"
   inkscape:connector-curvature="0" />
	<path
   d="m 131.092,250.542 h 2.099 v -15.418 c 0,-0.384 -0.029,-0.995 -0.029,-1.901 -0.04,-0.571 -0.04,-1.438 -0.069,-2.601 l 0.65,1.931 0.788,2.128 6.325,15.861 h 3.074 v -22.955 h -2.108 v 15.319 c 0,1.124 0.039,2.099 0.138,4.532 -0.65,-1.881 -0.926,-2.571 -1.448,-3.881 l -6.354,-15.97 h -3.064 v 22.955"
   id="path101"
   style="fill:#2f63b7"
   inkscape:connector-curvature="0" />
	<path
   d="m 154.677,230.1 c 0.266,1.517 0.384,1.931 0.749,3.448 l 2,7.526 h -5.507 l 2.029,-7.526 c 0.385,-1.419 0.483,-1.901 0.729,-3.448 z m -7.674,20.442 h 2.414 l 1.98,-7.478 h 6.581 l 1.951,7.478 h 2.621 l -6.433,-22.955 h -2.69 l -6.424,22.955"
   id="path103"
   style="fill:#2f63b7"
   inkscape:connector-curvature="0" />
	<path
   d="m 166.963,250.542 h 2.512 v -20.787 h 4.995 v -2.167 h -12.531 v 2.167 h 5.024 v 20.787"
   id="path105"
   style="fill:#2f63b7"
   inkscape:connector-curvature="0" />
	<path
   d="m 177.681,250.542 h 2.581 v -22.955 h -2.581 v 22.955 z"
   id="path107"
   style="fill:#2f63b7"
   inkscape:connector-curvature="0" />
	<path
   d="m 191.917,229.351 c 3.123,0 5.015,3.646 5.015,9.724 0,6.098 -1.892,9.704 -5.015,9.704 -3.133,0 -5.024,-3.605 -5.024,-9.704 0,-6.078 1.891,-9.724 5.024,-9.724 z m 0,21.595 c 4.817,0 7.635,-4.364 7.635,-11.871 0,-7.537 -2.817,-11.891 -7.635,-11.891 -4.818,0 -7.635,4.354 -7.635,11.891 0,7.507 2.817,11.871 7.635,11.871"
   id="path109"
   style="fill:#2f63b7"
   inkscape:connector-curvature="0" />
	<path
   d="m 203.729,250.542 h 2.099 v -15.418 c 0,-0.384 -0.03,-0.995 -0.03,-1.901 -0.039,-0.571 -0.039,-1.438 -0.079,-2.601 l 0.65,1.931 0.808,2.128 6.315,15.861 h 3.063 v -22.955 h -2.088 v 15.319 c 0,1.124 0.029,2.099 0.128,4.532 -0.65,-1.881 -0.916,-2.571 -1.438,-3.881 l -6.364,-15.97 h -3.064 v 22.955"
   id="path111"
   style="fill:#2f63b7"
   inkscape:connector-curvature="0" />
	<path
   d="m 227.305,230.1 c 0.275,1.517 0.374,1.931 0.758,3.448 l 1.99,7.526 h -5.507 l 2.039,-7.526 c 0.375,-1.419 0.473,-1.901 0.72,-3.448 z m -7.675,20.442 h 2.424 l 1.989,-7.478 h 6.552 l 1.971,7.478 h 2.61 l -6.423,-22.955 h -2.689 l -6.434,22.955"
   id="path113"
   style="fill:#2f63b7"
   inkscape:connector-curvature="0" />
	<path
   d="m 238.24,250.542 h 9.654 v -2.167 h -7.143 v -20.787 h -2.512 v 22.954"
   id="path115"
   style="fill:#2f63b7"
   inkscape:connector-curvature="0" />
	<path
   d="m 251.116,250.542 h 10.994 v -2.167 h -8.492 v -8.709 h 7.94 v -2.128 h -7.94 v -7.783 h 8.049 v -2.167 h -10.551 v 22.954"
   id="path117"
   style="fill:#2f63b7"
   inkscape:connector-curvature="0" />
	<path
   d="m 285.124,233.41 c -0.285,-1.546 -0.453,-2.197 -0.798,-2.965 -0.335,-0.749 -0.827,-1.399 -1.408,-1.921 -1.055,-0.936 -2.365,-1.34 -4.118,-1.34 -3.921,0 -6.374,2.364 -6.374,6.157 0,1.399 0.384,2.68 1.152,3.685 0.788,1.024 1.438,1.478 3.566,2.434 2.443,1.113 3.507,1.763 4.354,2.571 0.689,0.67 1.073,1.694 1.073,2.798 0,2.374 -1.704,4.059 -4.157,4.059 -1.754,0 -3.191,-0.965 -3.743,-2.473 -0.276,-0.66 -0.345,-1.005 -0.522,-2.177 l -2.306,0.306 c 0.483,4.443 2.522,6.482 6.364,6.482 4.158,0 6.976,-2.611 6.976,-6.443 0,-2 -0.857,-3.881 -2.266,-4.956 -0.828,-0.571 -2.641,-1.576 -4.158,-2.197 -2.403,-1.034 -2.995,-1.478 -3.438,-2.689 -0.206,-0.512 -0.305,-1.054 -0.305,-1.645 0,-2.345 1.438,-3.783 3.665,-3.783 1.704,0 3.005,0.788 3.586,2.207 0.246,0.581 0.345,0.955 0.552,2.197 l 2.305,-0.307"
   id="path119"
   style="fill:#2f63b7"
   inkscape:connector-curvature="0" />
	<path
   d="m 300.513,227.588 v 16.167 c 0,3.478 -1.379,5.104 -4.354,5.104 -2.896,0 -4.157,-1.557 -4.157,-5.104 v -16.167 h -2.522 v 15.585 c 0,2.995 0.414,4.611 1.478,5.852 1.074,1.231 2.927,1.96 5.015,1.96 3.32,0 5.754,-1.547 6.482,-4.167 0.267,-0.966 0.404,-2.089 0.404,-3.508 v -15.723 h -2.346"
   id="path121"
   style="fill:#2f63b7"
   inkscape:connector-curvature="0" />
	<path
   d="m 308.365,250.542 h 2.571 v -22.955 h -2.571 v 22.955 z"
   id="path123"
   style="fill:#2f63b7"
   inkscape:connector-curvature="0" />
	<path
   d="m 327.743,233.41 c -0.276,-1.546 -0.443,-2.197 -0.788,-2.965 -0.345,-0.749 -0.828,-1.399 -1.419,-1.921 -1.054,-0.936 -2.364,-1.34 -4.118,-1.34 -3.921,0 -6.354,2.364 -6.354,6.157 0,1.399 0.365,2.68 1.133,3.685 0.789,1.024 1.438,1.478 3.566,2.434 2.443,1.113 3.508,1.763 4.375,2.571 0.689,0.67 1.063,1.694 1.063,2.798 0,2.374 -1.714,4.059 -4.167,4.059 -1.744,0 -3.192,-0.965 -3.734,-2.473 -0.275,-0.66 -0.354,-1.005 -0.531,-2.177 l -2.296,0.306 c 0.482,4.443 2.513,6.482 6.364,6.482 4.167,0 6.985,-2.611 6.985,-6.443 0,-2 -0.867,-3.881 -2.286,-4.956 -0.817,-0.571 -2.641,-1.576 -4.157,-2.197 -2.404,-1.034 -2.995,-1.478 -3.438,-2.689 -0.197,-0.512 -0.306,-1.054 -0.306,-1.645 0,-2.345 1.438,-3.783 3.685,-3.783 1.685,0 2.995,0.788 3.586,2.207 0.227,0.581 0.325,0.955 0.532,2.197 l 2.305,-0.307"
   id="path125"
   style="fill:#2f63b7"
   inkscape:connector-curvature="0" />
	<path
   d="m 343.535,233.41 c -0.285,-1.546 -0.463,-2.197 -0.798,-2.965 -0.335,-0.749 -0.827,-1.399 -1.408,-1.921 -1.074,-0.936 -2.375,-1.34 -4.139,-1.34 -3.911,0 -6.354,2.364 -6.354,6.157 0,1.399 0.384,2.68 1.133,3.685 0.788,1.024 1.438,1.478 3.586,2.434 2.434,1.113 3.497,1.763 4.354,2.571 0.689,0.67 1.063,1.694 1.063,2.798 0,2.374 -1.714,4.059 -4.147,4.059 -1.764,0 -3.212,-0.965 -3.743,-2.473 -0.286,-0.66 -0.355,-1.005 -0.522,-2.177 l -2.306,0.306 c 0.483,4.443 2.503,6.482 6.354,6.482 4.168,0 6.985,-2.611 6.985,-6.443 0,-2 -0.857,-3.881 -2.266,-4.956 -0.838,-0.571 -2.66,-1.576 -4.168,-2.197 -2.394,-1.034 -2.985,-1.478 -3.428,-2.689 -0.217,-0.512 -0.325,-1.054 -0.325,-1.645 0,-2.345 1.458,-3.783 3.685,-3.783 1.685,0 2.994,0.788 3.586,2.207 0.227,0.581 0.325,0.955 0.541,2.197 l 2.317,-0.307"
   id="path127"
   style="fill:#2f63b7"
   inkscape:connector-curvature="0" />
	<path
   d="m 347.89,250.542 h 11.005 v -2.167 h -8.492 v -8.709 h 7.931 v -2.128 h -7.931 v -7.783 h 8.039 v -2.167 H 347.89 v 22.954"
   id="path129"
   style="fill:#2f63b7"
   inkscape:connector-curvature="0" />
	<path
   d="m 32.526,199.461 c -0.276,-1.547 -0.443,-2.207 -0.788,-2.956 -0.345,-0.758 -0.828,-1.418 -1.399,-1.931 -1.074,-0.926 -2.384,-1.35 -4.127,-1.35 -3.931,0 -6.375,2.384 -6.375,6.177 0,1.399 0.384,2.67 1.143,3.675 0.788,1.024 1.438,1.478 3.576,2.443 2.443,1.094 3.498,1.753 4.364,2.571 0.689,0.66 1.064,1.685 1.064,2.798 0,2.364 -1.714,4.049 -4.157,4.049 -1.754,0 -3.202,-0.955 -3.754,-2.473 -0.275,-0.65 -0.335,-0.995 -0.502,-2.167 l -2.306,0.305 c 0.473,4.453 2.502,6.463 6.354,6.463 4.157,0 6.985,-2.601 6.985,-6.423 0,-1.99 -0.867,-3.892 -2.266,-4.946 -0.827,-0.591 -2.65,-1.596 -4.167,-2.207 -2.404,-1.035 -2.995,-1.478 -3.438,-2.689 -0.207,-0.513 -0.315,-1.074 -0.315,-1.646 0,-2.345 1.448,-3.783 3.685,-3.783 1.685,0 2.985,0.788 3.576,2.188 0.236,0.591 0.345,0.975 0.542,2.207 l 2.305,-0.305"
   id="path131"
   style="fill:#2f63b7"
   inkscape:connector-curvature="0" />
	<path
   d="m 49.924,210.751 -2.433,-0.414 c -0.631,3.024 -2.04,4.502 -4.306,4.502 -3.192,0 -5.054,-3.606 -5.054,-9.704 0,-6.118 1.862,-9.744 5.054,-9.744 2.237,0 3.616,1.419 4.306,4.414 l 2.374,-0.375 c -0.384,-1.793 -0.65,-2.483 -1.359,-3.448 -1.261,-1.812 -3.083,-2.758 -5.35,-2.758 -4.817,0 -7.635,4.374 -7.635,11.911 0,7.497 2.818,11.872 7.635,11.872 2.295,0 4.227,-0.995 5.35,-2.759 0.708,-1.054 0.945,-1.674 1.418,-3.497"
   id="path133"
   style="fill:#2f63b7"
   inkscape:connector-curvature="0" />
	<path
   d="m 56.189,203.491 v -9.842 h -2.502 v 22.945 h 2.502 v -10.975 h 8.01 v 10.975 h 2.512 v -22.945 h -2.512 v 9.842 h -8.01"
   id="path135"
   style="fill:#2f63b7"
   inkscape:connector-curvature="0" />
	<path
   d="m 92.148,193.648 h -2.404 l -2.788,15.103 -0.522,2.788 -0.236,2.542 h -0.069 c -0.443,-3.576 -0.552,-4.571 -0.789,-5.744 l -2.65,-14.689 h -3.192 l -2.788,14.689 c -0.424,2.059 -0.552,3.094 -0.759,5.744 h -0.069 l -0.306,-2.542 -0.512,-3.064 -2.591,-14.827 h -2.65 l 4.295,22.945 h 3.32 l 2.847,-15.487 c 0.335,-1.744 0.434,-2.601 0.719,-4.946 h 0.039 c 0.237,2.443 0.345,3.438 0.65,5.083 l 2.749,15.349 h 3.241 l 4.465,-22.944"
   id="path137"
   style="fill:#2f63b7"
   inkscape:connector-curvature="0" />
	<path
   d="m 95.291,216.593 h 11.014 v -2.167 h -8.502 v -8.708 h 7.941 v -2.128 h -7.941 v -7.773 h 8.059 V 193.65 H 95.291 v 22.943"
   id="path139"
   style="fill:#2f63b7"
   inkscape:connector-curvature="0" />
	<path
   d="m 110.807,216.593 h 2.582 v -22.945 h -2.582 v 22.945 z"
   id="path141"
   style="fill:#2f63b7"
   inkscape:connector-curvature="0" />
	<path
   d="m 116.935,216.593 h 12.197 v -2.167 h -4.709 l -3.054,0.069 -1.655,0.04 c 0.749,-1.172 1.024,-1.645 1.586,-2.788 l 7.833,-16.354 v -1.744 H 117.34 v 2.167 h 4.434 l 2.926,-0.069 1.675,-0.03 c -0.266,0.404 -0.463,0.69 -0.571,0.887 -0.099,0.207 -0.384,0.759 -0.828,1.646 l -8.039,16.649 v 1.694"
   id="path143"
   style="fill:#2f63b7"
   inkscape:connector-curvature="0" />
	<path
   d="m 132.826,216.593 h 11.004 v -2.167 h -8.492 v -8.708 h 7.94 v -2.128 h -7.94 v -7.773 h 8.039 v -2.167 h -10.551 v 22.943"
   id="path145"
   style="fill:#2f63b7"
   inkscape:connector-curvature="0" />
	<path
   d="m 150.944,195.747 c 1.133,-0.069 1.655,-0.099 2.246,-0.099 2.375,0 3.33,0.237 4.079,0.995 0.769,0.719 1.113,1.724 1.113,3.064 0,1.921 -0.758,3.162 -2.236,3.645 -0.867,0.276 -1.448,0.345 -3.31,0.345 h -1.892 v -7.95 z m 4.718,9.832 c 3.438,-0.473 5.33,-2.571 5.33,-5.951 0,-2.128 -0.896,-4.049 -2.305,-4.985 -1.281,-0.828 -2.621,-1.093 -5.576,-1.093 -0.65,0 -1.96,0.029 -4.68,0.098 v 22.945 h 2.512 v -10.768 h 2.147 l 5.812,10.768 h 2.837 l -5.123,-9.458 c -0.441,-0.827 -0.51,-0.935 -0.954,-1.556"
   id="path147"
   style="fill:#2f63b7"
   inkscape:connector-curvature="0" />
	<path
   d="m 164.913,216.593 h 2.581 v -22.945 h -2.581 v 22.945 z"
   id="path149"
   style="fill:#2f63b7"
   inkscape:connector-curvature="0" />
	<path
   d="m 184.302,199.461 c -0.266,-1.547 -0.443,-2.207 -0.788,-2.956 -0.345,-0.758 -0.828,-1.418 -1.418,-1.931 -1.054,-0.926 -2.375,-1.35 -4.118,-1.35 -3.921,0 -6.354,2.384 -6.354,6.177 0,1.399 0.384,2.67 1.133,3.675 0.789,1.024 1.438,1.478 3.566,2.443 2.443,1.094 3.507,1.753 4.375,2.571 0.689,0.66 1.064,1.685 1.064,2.798 0,2.364 -1.714,4.049 -4.167,4.049 -1.744,0 -3.192,-0.955 -3.744,-2.473 -0.266,-0.65 -0.345,-0.995 -0.522,-2.167 l -2.295,0.305 c 0.482,4.453 2.512,6.463 6.364,6.463 4.167,0 6.985,-2.601 6.985,-6.423 0,-1.99 -0.867,-3.892 -2.286,-4.946 -0.818,-0.591 -2.641,-1.596 -4.158,-2.207 -2.404,-1.035 -2.995,-1.478 -3.438,-2.689 -0.197,-0.513 -0.306,-1.074 -0.306,-1.646 0,-2.345 1.438,-3.783 3.685,-3.783 1.685,0 2.995,0.788 3.566,2.188 0.246,0.591 0.345,0.975 0.552,2.207 l 2.304,-0.305"
   id="path151"
   style="fill:#2f63b7"
   inkscape:connector-curvature="0" />
	<path
   d="m 201.69,210.751 -2.434,-0.414 c -0.621,3.024 -2.02,4.502 -4.295,4.502 -3.211,0 -5.054,-3.606 -5.054,-9.704 0,-6.118 1.842,-9.744 5.054,-9.744 2.236,0 3.606,1.419 4.295,4.414 l 2.375,-0.375 c -0.384,-1.793 -0.65,-2.483 -1.34,-3.448 -1.281,-1.812 -3.094,-2.758 -5.369,-2.758 -4.818,0 -7.625,4.374 -7.625,11.911 0,7.497 2.808,11.872 7.625,11.872 2.315,0 4.236,-0.995 5.369,-2.759 0.69,-1.054 0.916,-1.674 1.399,-3.497"
   id="path153"
   style="fill:#2f63b7"
   inkscape:connector-curvature="0" />
	<path
   d="m 207.966,203.491 v -9.842 h -2.522 v 22.945 h 2.522 v -10.975 h 8.009 v 10.975 h 2.513 v -22.945 h -2.513 v 9.842 h -8.009"
   id="path155"
   style="fill:#2f63b7"
   inkscape:connector-curvature="0" />
	<path
   d="m 224.043,216.593 h 11.015 v -2.167 h -8.502 v -8.708 h 7.931 v -2.128 h -7.931 v -7.773 h 8.039 v -2.167 h -10.552 v 22.943"
   id="path157"
   style="fill:#2f63b7"
   inkscape:connector-curvature="0" />
	<path
   d="m 246.644,216.593 h 2.088 v -15.408 c 0,-0.384 -0.039,-0.995 -0.039,-1.892 -0.02,-0.581 -0.02,-1.448 -0.059,-2.62 l 0.649,1.931 0.788,2.128 6.335,15.861 h 3.054 v -22.945 h -2.098 v 15.31 c 0,1.133 0.039,2.088 0.138,4.542 -0.65,-1.892 -0.926,-2.582 -1.438,-3.892 l -6.354,-15.96 h -3.063 v 22.945"
   id="path159"
   style="fill:#2f63b7"
   inkscape:connector-curvature="0" />
	<path
   d="m 270.209,196.161 c 0.275,1.518 0.384,1.921 0.748,3.438 l 2.01,7.537 h -5.497 l 2.029,-7.537 c 0.375,-1.409 0.474,-1.882 0.71,-3.438 z m -7.655,20.432 h 2.395 l 2,-7.468 h 6.561 l 1.961,7.468 h 2.62 l -6.423,-22.945 h -2.699 l -6.415,22.945"
   id="path161"
   style="fill:#2f63b7"
   inkscape:connector-curvature="0" />
	<path
   d="m 282.514,216.593 h 2.512 v -20.777 h 4.985 v -2.167 h -12.512 v 2.167 h 5.015 v 20.777"
   id="path163"
   style="fill:#2f63b7"
   inkscape:connector-curvature="0" />
	<path
   d="m 293.223,216.593 h 2.581 v -22.945 h -2.581 v 22.945 z"
   id="path165"
   style="fill:#2f63b7"
   inkscape:connector-curvature="0" />
	<path
   d="m 307.468,195.392 c 3.123,0 5.005,3.665 5.005,9.744 0,6.098 -1.882,9.704 -5.005,9.704 -3.133,0 -5.024,-3.606 -5.024,-9.704 0,-6.079 1.891,-9.744 5.024,-9.744 z m 0,21.615 c 4.808,0 7.615,-4.375 7.615,-11.872 0,-7.537 -2.808,-11.911 -7.615,-11.911 -4.817,0 -7.645,4.374 -7.645,11.911 0,7.498 2.828,11.872 7.645,11.872"
   id="path167"
   style="fill:#2f63b7"
   inkscape:connector-curvature="0" />
	<path
   d="m 319.271,216.593 h 2.099 v -15.408 c 0,-0.384 -0.03,-0.995 -0.03,-1.892 -0.039,-0.581 -0.039,-1.448 -0.068,-2.62 l 0.65,1.931 0.798,2.128 6.325,15.861 h 3.063 V 193.648 H 330 v 15.31 c 0,1.133 0.039,2.088 0.138,4.542 -0.66,-1.892 -0.926,-2.582 -1.448,-3.892 l -6.344,-15.96 h -3.074 v 22.945"
   id="path169"
   style="fill:#2f63b7"
   inkscape:connector-curvature="0" />
	<path
   d="m 342.856,196.161 c 0.276,1.518 0.374,1.921 0.749,3.438 l 2,7.537 h -5.508 l 2.03,-7.537 c 0.384,-1.409 0.483,-1.882 0.729,-3.438 z m -7.675,20.432 h 2.404 l 2,-7.468 h 6.571 l 1.96,7.468 h 2.611 l -6.434,-22.945 h -2.68 l -6.432,22.945"
   id="path171"
   style="fill:#2f63b7"
   inkscape:connector-curvature="0" />
	<path
   d="m 353.781,216.593 h 9.665 v -2.167 h -7.153 v -20.777 h -2.512 v 22.944"
   id="path173"
   style="fill:#2f63b7"
   inkscape:connector-curvature="0" />
	<path
   d="m 369.16,205.579 h 2.305 c 2.128,0 2.778,0.138 3.715,0.906 0.926,0.749 1.478,2.099 1.478,3.606 0,3.063 -1.725,4.443 -5.537,4.443 -0.403,0 -1.073,0 -1.96,-0.04 v -8.915 z m 0,-9.832 c 1.073,0 1.418,-0.03 1.861,-0.03 2.513,0 3.202,0.168 3.971,0.956 0.709,0.719 1.054,1.655 1.054,2.926 0,1.409 -0.492,2.512 -1.379,3.123 -0.896,0.63 -1.478,0.769 -3.379,0.769 h -0.611 c -0.345,-0.04 -0.867,-0.04 -1.517,-0.04 v -7.704 z m -2.512,20.846 c 1.862,0.04 3.104,0.04 3.714,0.04 2.995,0 4.158,-0.177 5.576,-0.788 0.66,-0.325 1.301,-0.828 1.892,-1.517 0.966,-1.133 1.458,-2.512 1.458,-4.128 0,-3.104 -1.557,-5.163 -4.314,-5.812 1.763,-0.65 2.649,-1.419 3.241,-2.857 0.266,-0.65 0.403,-1.448 0.403,-2.207 0,-2.03 -0.827,-3.714 -2.227,-4.68 -1.241,-0.857 -2.345,-1.034 -6.098,-1.034 -0.72,0 -1.715,0 -3.646,0.039 v 22.944"
   id="path175"
   style="fill:#2f63b7"
   inkscape:connector-curvature="0" />
	<path
   d="m 388.706,196.161 c 0.266,1.518 0.374,1.921 0.748,3.438 l 1.99,7.537 h -5.497 l 2.029,-7.537 c 0.386,-1.409 0.483,-1.882 0.73,-3.438 z m -7.675,20.432 h 2.414 l 1.989,-7.468 h 6.571 l 1.961,7.468 h 2.62 l -6.443,-22.945 h -2.68 l -6.432,22.945"
   id="path177"
   style="fill:#2f63b7"
   inkscape:connector-curvature="0" />
	<path
   d="m 399.642,216.593 h 2.107 v -15.408 c 0,-0.384 -0.059,-0.995 -0.059,-1.892 -0.02,-0.581 -0.02,-1.448 -0.06,-2.62 l 0.65,1.931 0.808,2.128 6.315,15.861 h 3.063 v -22.945 h -2.107 v 15.31 c 0,1.133 0.039,2.088 0.138,4.542 -0.65,-1.892 -0.927,-2.582 -1.438,-3.892 l -6.364,-15.96 h -3.054 v 22.945"
   id="path179"
   style="fill:#2f63b7"
   inkscape:connector-curvature="0" />
	<path
   d="m 430.329,216.593 -6.531,-12.314 6.463,-10.63 h -2.857 l -6.325,10.876 6.296,12.068 h 2.954 z m -12.304,0 h 2.513 v -22.945 h -2.513 v 22.945 z"
   id="path181"
   style="fill:#2f63b7"
   inkscape:connector-curvature="0" />
	<path
   d="m 32.526,335.248 c -0.276,-1.547 -0.443,-2.207 -0.788,-2.955 -0.345,-0.76 -0.828,-1.41 -1.419,-1.932 -1.054,-0.926 -2.364,-1.35 -4.108,-1.35 -3.931,0 -6.375,2.375 -6.375,6.168 0,1.408 0.384,2.689 1.143,3.684 0.788,1.035 1.438,1.479 3.576,2.434 2.443,1.113 3.498,1.754 4.364,2.592 0.689,0.648 1.054,1.674 1.054,2.787 0,2.375 -1.705,4.059 -4.147,4.059 -1.754,0 -3.202,-0.975 -3.754,-2.482 -0.275,-0.66 -0.335,-1.004 -0.522,-2.168 l -2.286,0.316 c 0.473,4.434 2.502,6.463 6.354,6.463 4.157,0 6.985,-2.621 6.985,-6.443 0,-1.99 -0.867,-3.881 -2.286,-4.945 -0.808,-0.582 -2.63,-1.576 -4.147,-2.207 -2.404,-1.025 -2.995,-1.479 -3.448,-2.68 -0.197,-0.521 -0.305,-1.064 -0.305,-1.656 0,-2.334 1.448,-3.781 3.685,-3.781 1.685,0 2.985,0.787 3.576,2.195 0.236,0.592 0.335,0.977 0.542,2.217 l 2.306,-0.316"
   id="path183"
   style="fill:#2f63b7"
   inkscape:connector-curvature="0" />
	<path
   d="m 59.283,352.391 h 2.591 v -22.955 h -2.591 v 22.955 z"
   id="path185"
   style="fill:#2f63b7"
   inkscape:connector-curvature="0" />
	<path
   d="m 78.681,335.248 c -0.266,-1.547 -0.443,-2.207 -0.788,-2.955 -0.345,-0.76 -0.828,-1.41 -1.418,-1.932 -1.054,-0.926 -2.375,-1.35 -4.128,-1.35 -3.911,0 -6.345,2.375 -6.345,6.168 0,1.408 0.365,2.689 1.123,3.684 0.788,1.035 1.448,1.479 3.576,2.434 2.453,1.113 3.507,1.754 4.375,2.592 0.689,0.648 1.054,1.674 1.054,2.787 0,2.375 -1.714,4.059 -4.147,4.059 -1.763,0 -3.202,-0.975 -3.753,-2.482 -0.276,-0.66 -0.345,-1.004 -0.512,-2.168 L 65.41,346.4 c 0.473,4.434 2.502,6.463 6.364,6.463 4.158,0 6.975,-2.621 6.975,-6.443 0,-1.99 -0.857,-3.881 -2.275,-4.945 -0.818,-0.582 -2.65,-1.576 -4.148,-2.207 -2.414,-1.025 -3.005,-1.479 -3.448,-2.68 -0.197,-0.521 -0.306,-1.064 -0.306,-1.656 0,-2.334 1.438,-3.781 3.675,-3.781 1.694,0 2.995,0.787 3.576,2.195 0.246,0.592 0.345,0.977 0.552,2.217 l 2.306,-0.315"
   id="path187"
   style="fill:#2f63b7"
   inkscape:connector-curvature="0" />
	<path
   d="m 94.453,335.248 c -0.266,-1.547 -0.443,-2.207 -0.788,-2.955 -0.345,-0.76 -0.827,-1.41 -1.399,-1.932 -1.074,-0.926 -2.384,-1.35 -4.127,-1.35 -3.931,0 -6.364,2.375 -6.364,6.168 0,1.408 0.384,2.689 1.133,3.684 0.788,1.035 1.438,1.479 3.586,2.434 2.434,1.113 3.487,1.754 4.354,2.592 0.689,0.648 1.074,1.674 1.074,2.787 0,2.375 -1.724,4.059 -4.167,4.059 -1.744,0 -3.202,-0.975 -3.743,-2.482 -0.276,-0.66 -0.345,-1.004 -0.513,-2.168 l -2.315,0.316 c 0.493,4.434 2.512,6.463 6.364,6.463 4.167,0 6.985,-2.621 6.985,-6.443 0,-1.99 -0.867,-3.881 -2.266,-4.945 -0.828,-0.582 -2.65,-1.576 -4.167,-2.207 -2.394,-1.025 -2.985,-1.479 -3.438,-2.68 -0.207,-0.521 -0.315,-1.064 -0.315,-1.656 0,-2.334 1.458,-3.781 3.685,-3.781 1.685,0 2.995,0.787 3.586,2.195 0.227,0.592 0.335,0.977 0.552,2.217 l 2.283,-0.316"
   id="path189"
   style="fill:#2f63b7"
   inkscape:connector-curvature="0" />
	<path
   d="m 56.386,329.406 h -2.394 l -2.788,15.102 -0.512,2.779 -0.247,2.551 h -0.069 c -0.433,-3.576 -0.552,-4.57 -0.788,-5.742 l -2.66,-14.689 h -3.182 l -2.788,14.689 c -0.414,2.059 -0.552,3.092 -0.759,5.742 H 40.13 l -0.306,-2.551 -0.512,-3.055 -2.591,-14.826 h -2.63 l 4.285,22.943 h 3.301 l 2.857,-15.486 c 0.345,-1.744 0.453,-2.602 0.719,-4.945 h 0.039 c 0.236,2.443 0.345,3.438 0.65,5.084 l 2.749,15.348 h 3.241 l 4.454,-22.944"
   id="path191"
   style="fill:#2f63b7"
   inkscape:connector-curvature="0" />
	<path
   d="m 104.68,352.391 h 2.088 v -15.428 c 0,-0.375 -0.04,-0.996 -0.04,-1.893 -0.029,-0.58 -0.029,-1.438 -0.059,-2.611 l 0.65,1.932 0.788,2.139 6.334,15.861 h 3.054 v -22.955 h -2.098 v 15.309 c 0,1.145 0.029,2.1 0.138,4.533 -0.65,-1.893 -0.926,-2.572 -1.438,-3.873 l -6.364,-15.969 h -3.054 v 22.955"
   id="path193"
   style="fill:#2f63b7"
   inkscape:connector-curvature="0" />
	<path
   d="m 128.245,331.938 c 0.275,1.518 0.374,1.932 0.749,3.438 l 2,7.537 h -5.507 l 2.029,-7.537 c 0.384,-1.399 0.483,-1.882 0.729,-3.438 z m -7.665,20.433 h 2.394 l 2.01,-7.459 h 6.562 l 1.96,7.459 h 2.61 l -6.433,-22.936 h -2.68 l -6.423,22.936"
   id="path195"
   style="fill:#2f63b7"
   inkscape:connector-curvature="0" />
	<path
   d="m 140.55,352.391 h 2.502 v -20.787 h 4.985 v -2.168 h -12.512 v 2.168 h 5.024 v 20.787"
   id="path197"
   style="fill:#2f63b7"
   inkscape:connector-curvature="0" />
	<path
   d="m 151.249,352.391 h 2.591 v -22.955 h -2.591 v 22.955 z"
   id="path199"
   style="fill:#2f63b7"
   inkscape:connector-curvature="0" />
	<path
   d="m 165.485,331.189 c 3.133,0 5.024,3.645 5.024,9.732 0,6.09 -1.892,9.705 -5.024,9.705 -3.123,0 -5.024,-3.615 -5.024,-9.705 -0.001,-6.087 1.901,-9.732 5.024,-9.732 z m 0,21.604 c 4.818,0 7.635,-4.373 7.635,-11.871 0,-7.535 -2.817,-11.91 -7.635,-11.91 -4.808,0 -7.635,4.375 -7.635,11.91 0,7.498 2.827,11.871 7.635,11.871"
   id="path201"
   style="fill:#2f63b7"
   inkscape:connector-curvature="0" />
	<path
   d="m 177.307,352.391 h 2.099 v -15.428 c 0,-0.375 -0.04,-0.996 -0.04,-1.893 -0.04,-0.58 -0.04,-1.438 -0.059,-2.611 l 0.65,1.932 0.788,2.139 6.334,15.861 h 3.054 v -22.955 h -2.099 v 15.309 c 0,1.145 0.04,2.1 0.138,4.533 -0.66,-1.893 -0.926,-2.572 -1.448,-3.873 l -6.364,-15.969 h -3.054 v 22.955"
   id="path203"
   style="fill:#2f63b7"
   inkscape:connector-curvature="0" />
	<path
   d="m 200.882,331.938 c 0.266,1.518 0.365,1.932 0.749,3.438 l 2,7.537 h -5.497 l 2.02,-7.537 c 0.383,-1.399 0.482,-1.882 0.728,-3.438 z m -7.674,20.433 h 2.414 l 2,-7.459 h 6.561 l 1.951,7.459 h 2.621 l -6.434,-22.936 h -2.689 l -6.424,22.936"
   id="path205"
   style="fill:#2f63b7"
   inkscape:connector-curvature="0" />
	<path
   d="m 211.818,352.391 h 9.664 v -2.168 h -7.152 v -20.787 h -2.512 v 22.955"
   id="path207"
   style="fill:#2f63b7"
   inkscape:connector-curvature="0" />
	<path
   d="m 233.068,341.375 h 2.306 c 2.147,0 2.798,0.139 3.724,0.887 0.916,0.77 1.478,2.109 1.478,3.627 0,3.053 -1.733,4.432 -5.546,4.432 -0.404,0 -1.055,0 -1.961,-0.039 v -8.907 z m 0,-9.842 c 1.074,0 1.419,-0.029 1.862,-0.029 2.512,0 3.202,0.168 3.99,0.955 0.689,0.73 1.034,1.646 1.034,2.928 0,1.408 -0.482,2.521 -1.379,3.133 -0.887,0.609 -1.479,0.748 -3.38,0.748 h -0.61 c -0.345,-0.02 -0.867,-0.02 -1.518,-0.02 v -7.715 z m -2.512,20.858 c 1.861,0.029 3.104,0.029 3.724,0.029 2.985,0 4.157,-0.188 5.566,-0.799 0.65,-0.305 1.32,-0.828 1.892,-1.518 0.965,-1.133 1.438,-2.502 1.438,-4.117 0,-3.094 -1.537,-5.162 -4.296,-5.812 1.754,-0.66 2.65,-1.418 3.241,-2.857 0.267,-0.66 0.404,-1.447 0.404,-2.207 0,-2.029 -0.827,-3.703 -2.227,-4.68 -1.241,-0.855 -2.345,-1.023 -6.099,-1.023 -0.709,0 -1.704,0 -3.645,0.029 v 22.955"
   id="path209"
   style="fill:#2f63b7"
   inkscape:connector-curvature="0" />
	<path
   d="m 252.614,331.938 c 0.276,1.518 0.385,1.932 0.749,3.438 l 2,7.537 h -5.507 l 2.029,-7.537 c 0.384,-1.399 0.482,-1.882 0.729,-3.438 z m -7.675,20.433 h 2.414 l 2,-7.459 h 6.562 l 1.96,7.459 h 2.611 l -6.434,-22.936 h -2.68 l -6.433,22.936"
   id="path211"
   style="fill:#2f63b7"
   inkscape:connector-curvature="0" />
	<path
   d="m 263.549,352.391 h 2.089 v -15.428 c 0,-0.375 -0.029,-0.996 -0.029,-1.893 -0.03,-0.58 -0.03,-1.438 -0.069,-2.611 l 0.66,1.932 0.798,2.139 6.315,15.861 h 3.063 v -22.955 h -2.099 v 15.309 c 0,1.145 0.029,2.1 0.128,4.533 -0.65,-1.893 -0.916,-2.572 -1.438,-3.873 l -6.354,-15.969 h -3.064 v 22.955"
   id="path213"
   style="fill:#2f63b7"
   inkscape:connector-curvature="0" />
	<path
   d="m 294.238,352.391 -6.542,-12.314 6.482,-10.641 h -2.856 l -6.335,10.867 6.295,12.088 h 2.956 z m -12.305,0 h 2.502 v -22.955 h -2.502 v 22.955 z"
   id="path215"
   style="fill:#2f63b7"
   inkscape:connector-curvature="0" />
	<path
   d="m 420.596,337.789 v -7.693 h -6.413 v 7.693 h -7.714 v 6.434 h 7.714 v 7.705 h 6.413 v -7.705 h 7.714 v -6.434 h -7.714 z"
   id="path217"
   style="fill:none;stroke:#2f63b7;stroke-width:1.54100001"
   inkscape:connector-curvature="0" />
</g>

</svg>